<svg width="450" height="340" viewBox="0 0 450 340" fill="none" xmlns="http://www.w3.org/2000/svg">
<path d="M207.519 72.5329H96.5096C95.9646 72.5323 95.4421 72.3154 95.0567 71.9297C94.6713 71.544 94.4545 71.0211 94.4539 70.4757V42.9194C94.4545 42.374 94.6713 41.8511 95.0567 41.4654C95.4421 41.0798 95.9646 40.8628 96.5096 40.8622H207.519C208.064 40.8628 208.586 41.0798 208.972 41.4654C209.357 41.8511 209.574 42.374 209.575 42.9194V70.4757C209.574 71.0211 209.357 71.544 208.972 71.9297C208.586 72.3154 208.064 72.5323 207.519 72.5329ZM96.5096 41.685C96.1826 41.6854 95.8691 41.8156 95.6378 42.047C95.4066 42.2784 95.2765 42.5921 95.2761 42.9194V70.4757C95.2765 70.803 95.4066 71.1167 95.6378 71.3481C95.8691 71.5795 96.1826 71.7097 96.5096 71.71H207.519C207.846 71.7097 208.16 71.5795 208.391 71.3481C208.622 71.1167 208.752 70.803 208.752 70.4757V42.9194C208.752 42.5921 208.622 42.2784 208.391 42.047C208.16 41.8156 207.846 41.6854 207.519 41.6851L96.5096 41.685Z" fill="#3F3D56"/>
<path d="M113.758 64.0201C118.383 64.0201 122.132 60.2683 122.132 55.6402C122.132 51.0121 118.383 47.2603 113.758 47.2603C109.133 47.2603 105.384 51.0121 105.384 55.6402C105.384 60.2683 109.133 64.0201 113.758 64.0201Z" fill="#524F85"/>
<path d="M133.098 50.0536C132.728 50.0536 132.373 50.2007 132.111 50.4627C131.849 50.7246 131.702 51.0798 131.702 51.4502C131.702 51.8207 131.849 52.1759 132.111 52.4378C132.373 52.6998 132.728 52.8469 133.098 52.8469H198.893C199.263 52.8469 199.618 52.6998 199.88 52.4378C200.142 52.1759 200.289 51.8207 200.289 51.4502C200.289 51.0798 200.142 50.7246 199.88 50.4627C199.618 50.2007 199.263 50.0536 198.893 50.0536H133.098Z" fill="#E6E6E6"/>
<path d="M133.098 58.4335C132.728 58.4335 132.373 58.5807 132.111 58.8426C131.849 59.1045 131.702 59.4598 131.702 59.8302C131.702 60.2006 131.849 60.5558 132.111 60.8178C132.373 61.0797 132.728 61.2268 133.098 61.2268H161.41C161.593 61.2272 161.775 61.1913 161.945 61.1213C162.114 61.0512 162.269 60.9484 162.398 60.8187C162.528 60.6889 162.631 60.5349 162.702 60.3653C162.772 60.1956 162.808 60.0138 162.808 59.8302C162.808 59.6466 162.772 59.4647 162.702 59.2951C162.631 59.1255 162.528 58.9714 162.398 58.8417C162.269 58.712 162.114 58.6092 161.945 58.5391C161.775 58.4691 161.593 58.4332 161.41 58.4335H133.098Z" fill="#E6E6E6"/>
<path d="M159.325 170.759H109.988C109.443 170.758 108.92 170.541 108.535 170.155C108.149 169.77 107.933 169.247 107.932 168.702V117.282C107.933 116.736 108.149 116.213 108.535 115.828C108.92 115.442 109.443 115.225 109.988 115.225H159.325C159.87 115.225 160.393 115.442 160.778 115.828C161.164 116.213 161.38 116.736 161.381 117.282V168.702C161.38 169.247 161.164 169.77 160.778 170.155C160.393 170.541 159.87 170.758 159.325 170.759ZM109.988 116.047C109.661 116.048 109.347 116.178 109.116 116.409C108.885 116.641 108.755 116.954 108.754 117.282V168.702C108.755 169.029 108.885 169.343 109.116 169.574C109.347 169.805 109.661 169.935 109.988 169.936H159.325C159.652 169.935 159.966 169.805 160.197 169.574C160.428 169.343 160.558 169.029 160.559 168.702V117.282C160.558 116.954 160.428 116.641 160.197 116.409C159.966 116.178 159.652 116.048 159.325 116.047H109.988Z" fill="#3F3D56"/>
<path d="M120.501 125.828C120.13 125.828 119.775 125.975 119.514 126.237C119.252 126.499 119.105 126.854 119.105 127.225C119.105 127.595 119.252 127.951 119.514 128.212C119.775 128.474 120.13 128.622 120.501 128.622H148.813C149.183 128.622 149.538 128.474 149.799 128.212C150.061 127.951 150.208 127.595 150.208 127.225C150.208 126.854 150.061 126.499 149.799 126.237C149.538 125.975 149.183 125.828 148.813 125.828H120.501Z" fill="#E6E6E6"/>
<path d="M120.501 134.057C120.317 134.057 120.135 134.093 119.966 134.163C119.796 134.233 119.642 134.335 119.512 134.465C119.382 134.595 119.279 134.749 119.209 134.919C119.139 135.088 119.102 135.27 119.102 135.454C119.102 135.637 119.139 135.819 119.209 135.989C119.279 136.158 119.382 136.312 119.512 136.442C119.642 136.572 119.796 136.675 119.966 136.745C120.135 136.815 120.317 136.851 120.501 136.85H148.813C149.183 136.85 149.538 136.703 149.799 136.441C150.061 136.179 150.208 135.824 150.208 135.454C150.208 135.083 150.061 134.728 149.799 134.466C149.538 134.204 149.183 134.057 148.813 134.057H120.501Z" fill="#E6E6E6"/>
<path d="M134.657 160.155C132.919 160.155 131.221 159.639 129.776 158.673C128.331 157.707 127.205 156.334 126.54 154.728C125.875 153.122 125.702 151.354 126.04 149.649C126.379 147.943 127.216 146.377 128.445 145.147C129.673 143.918 131.239 143.081 132.943 142.741C134.647 142.402 136.413 142.576 138.019 143.242C139.624 143.907 140.996 145.034 141.961 146.48C142.926 147.925 143.442 149.625 143.442 151.364C143.439 153.695 142.513 155.929 140.866 157.577C139.219 159.225 136.986 160.152 134.657 160.155Z" fill="#524F85"/>
<path d="M240.149 0H289.486C290.031 0.000640428 290.554 0.217585 290.939 0.603245C291.324 0.988905 291.541 1.51179 291.542 2.0572V53.477C291.541 54.0224 291.324 54.5453 290.939 54.931C290.554 55.3166 290.031 55.5336 289.486 55.5342H240.149C239.604 55.5336 239.081 55.3166 238.696 54.931C238.31 54.5453 238.093 54.0224 238.093 53.477V2.0572C238.093 1.51179 238.31 0.988905 238.696 0.603245C239.081 0.217585 239.604 0.000640428 240.149 0ZM289.486 54.7113C289.813 54.711 290.127 54.5808 290.358 54.3494C290.589 54.118 290.719 53.8043 290.72 53.477V2.0572C290.719 1.72994 290.589 1.4162 290.358 1.18479C290.127 0.953393 289.813 0.823235 289.486 0.822877H240.149C239.822 0.823235 239.508 0.953393 239.277 1.18479C239.046 1.4162 238.915 1.72994 238.915 2.0572V53.477C238.915 53.8043 239.046 54.118 239.277 54.3494C239.508 54.5808 239.822 54.711 240.149 54.7113H289.486Z" fill="#3F3D56"/>
<path d="M278.973 44.9305C279.343 44.9305 279.698 44.7834 279.96 44.5214C280.222 44.2595 280.369 43.9043 280.369 43.5339C280.369 43.1634 280.222 42.8082 279.96 42.5463C279.698 42.2844 279.343 42.1372 278.973 42.1372H250.661C250.291 42.1372 249.936 42.2844 249.675 42.5463C249.413 42.8082 249.266 43.1634 249.266 43.5339C249.266 43.9043 249.413 44.2595 249.675 44.5214C249.936 44.7834 250.291 44.9305 250.661 44.9305H278.973Z" fill="#E6E6E6"/>
<path d="M278.973 36.7017C279.343 36.7017 279.698 36.5546 279.96 36.2927C280.222 36.0307 280.369 35.6755 280.369 35.3051C280.369 34.9347 280.222 34.5794 279.96 34.3175C279.698 34.0556 279.343 33.9084 278.973 33.9084H250.661C250.291 33.9084 249.936 34.0556 249.675 34.3175C249.413 34.5794 249.266 34.9347 249.266 35.3051C249.266 35.6755 249.413 36.0307 249.675 36.2927C249.936 36.5546 250.291 36.7017 250.661 36.7017H278.973Z" fill="#E6E6E6"/>
<path d="M264.817 10.6037C266.555 10.6037 268.253 11.1193 269.698 12.0853C271.143 13.0513 272.269 14.4243 272.934 16.0307C273.599 17.6371 273.773 19.4047 273.434 21.1101C273.095 22.8154 272.258 24.3819 271.029 25.6114C269.801 26.8409 268.235 27.6782 266.531 28.0174C264.827 28.3566 263.061 28.1825 261.455 27.5171C259.85 26.8517 258.478 25.7249 257.513 24.2792C256.548 22.8335 256.032 21.1337 256.032 19.395C256.035 17.0642 256.961 14.8296 258.608 13.1815C260.255 11.5334 262.488 10.6063 264.817 10.6037Z" fill="#524F85"/>
<path d="M95.0879 106.38C103.818 99.6129 114.019 94.9986 124.863 92.9101C135.793 90.8258 147.064 91.4054 157.723 94.5998C163.081 96.1964 168.229 98.4287 173.058 101.249C177.977 104.127 182.423 107.67 186.7 111.421C191.033 115.221 195.223 119.19 199.746 122.768C212.659 133.097 228.69 138.741 245.222 138.777C246.588 138.779 247.953 138.741 249.316 138.664C250.056 138.623 250.06 137.467 249.316 137.508C232.465 138.436 215.824 133.404 202.307 123.292C197.619 119.784 193.338 115.773 188.968 111.887C184.732 108.118 180.382 104.453 175.575 101.425C163.818 94.0129 150.14 90.2292 136.248 90.5461C122.356 90.8629 108.865 95.2663 97.4575 103.207C96.3728 103.962 95.3134 104.75 94.271 105.562C93.6849 106.019 94.5078 106.832 95.0879 106.38V106.38Z" fill="#3F3D56"/>
<path d="M94.4745 111.968C97.7903 111.968 100.478 109.278 100.478 105.96C100.478 102.642 97.7903 99.9517 94.4745 99.9517C91.1587 99.9517 88.4707 102.642 88.4707 105.96C88.4707 109.278 91.1587 111.968 94.4745 111.968Z" fill="#3F3D56"/>
<path d="M317.827 191.739C321.143 191.739 323.831 189.049 323.831 185.731C323.831 182.412 321.143 179.722 317.827 179.722C314.512 179.722 311.824 182.412 311.824 185.731C311.824 189.049 314.512 191.739 317.827 191.739Z" fill="#3F3D56"/>
<path d="M349.28 151.506H251.316C250.771 151.505 250.249 151.288 249.863 150.902C249.478 150.517 249.261 149.994 249.261 149.448V98.4401C249.261 97.8947 249.478 97.3718 249.863 96.9862C250.249 96.6005 250.771 96.3835 251.316 96.3829H349.28C349.825 96.3835 350.347 96.6005 350.733 96.9861C351.118 97.3718 351.335 97.8947 351.336 98.4401V149.448C351.335 149.994 351.118 150.517 350.733 150.902C350.347 151.288 349.825 151.505 349.28 151.506ZM251.316 97.2058C250.989 97.2062 250.676 97.3363 250.444 97.5677C250.213 97.7991 250.083 98.1129 250.083 98.4401V149.448C250.083 149.776 250.213 150.089 250.444 150.321C250.676 150.552 250.989 150.682 251.316 150.683H349.28C349.607 150.682 349.92 150.552 350.152 150.321C350.383 150.089 350.513 149.776 350.513 149.448V98.4401C350.513 98.1129 350.383 97.7991 350.152 97.5677C349.92 97.3363 349.607 97.2062 349.28 97.2058H251.316Z" fill="#3F3D56"/>
<path d="M267.743 122.832C272.367 122.832 276.116 119.081 276.116 114.452C276.116 109.824 272.367 106.073 267.743 106.073C263.118 106.073 259.369 109.824 259.369 114.452C259.369 119.081 263.118 122.832 267.743 122.832Z" fill="#524F85"/>
<path d="M287.082 108.866C286.899 108.866 286.717 108.901 286.547 108.971C286.378 109.041 286.224 109.144 286.094 109.274C285.964 109.404 285.861 109.558 285.791 109.727C285.72 109.897 285.684 110.079 285.684 110.263C285.684 110.446 285.72 110.628 285.791 110.798C285.861 110.967 285.964 111.121 286.094 111.251C286.224 111.381 286.378 111.484 286.547 111.554C286.717 111.624 286.899 111.66 287.082 111.659H339.832C340.202 111.659 340.557 111.512 340.819 111.25C341.08 110.988 341.227 110.633 341.227 110.263C341.227 109.892 341.08 109.537 340.819 109.275C340.557 109.013 340.202 108.866 339.832 108.866H287.082Z" fill="#E6E6E6"/>
<path d="M287.082 117.246C286.899 117.245 286.717 117.281 286.547 117.351C286.378 117.421 286.224 117.524 286.094 117.654C285.964 117.784 285.861 117.938 285.791 118.107C285.72 118.277 285.684 118.459 285.684 118.642C285.684 118.826 285.72 119.008 285.791 119.178C285.861 119.347 285.964 119.501 286.094 119.631C286.224 119.761 286.378 119.863 286.547 119.934C286.717 120.004 286.899 120.039 287.082 120.039H315.394C315.764 120.039 316.119 119.892 316.381 119.63C316.643 119.368 316.79 119.013 316.79 118.642C316.79 118.272 316.643 117.917 316.381 117.655C316.119 117.393 315.764 117.246 315.394 117.246H287.082Z" fill="#E6E6E6"/>
<path d="M261.32 130.643C260.258 130.643 259.394 131.269 259.394 132.039C259.394 132.81 260.258 133.436 261.32 133.436H339.051C340.113 133.436 340.976 132.81 340.976 132.039C340.976 131.269 340.113 130.643 339.051 130.643H261.32Z" fill="#E6E6E6"/>
<path d="M261.32 139.023C260.258 139.023 259.394 139.649 259.394 140.419C259.394 141.189 260.258 141.816 261.32 141.816H339.051C340.113 141.816 340.976 141.189 340.976 140.419C340.976 139.649 340.113 139.023 339.051 139.023H261.32Z" fill="#E6E6E6"/>
<path d="M243.441 191.324C248.968 188.925 255.139 191.016 260.348 193.228C263.031 194.367 265.685 195.582 268.461 196.481C270.797 197.236 273.189 197.803 275.615 198.178C280.483 198.924 285.433 198.954 290.31 198.268C295.211 197.584 299.988 196.194 304.491 194.141C308.97 192.11 313.109 189.402 316.765 186.111C317.23 185.691 317.686 185.261 318.133 184.821C318.665 184.3 317.848 183.482 317.316 184.004C313.796 187.438 309.755 190.292 305.343 192.462C300.949 194.624 296.262 196.131 291.432 196.934C286.586 197.752 281.644 197.837 276.773 197.187C274.343 196.858 271.943 196.336 269.596 195.626C266.9 194.748 264.255 193.72 261.674 192.547C256.416 190.287 250.574 188.075 244.797 189.633C244.135 189.816 243.487 190.048 242.858 190.326C242.178 190.621 242.766 191.617 243.441 191.324V191.324Z" fill="#3F3D56"/>
<path d="M241.306 205.503H195.023L205.915 186.624C206.11 186.286 206.391 186.005 206.729 185.809C207.067 185.614 207.451 185.511 207.841 185.511C208.232 185.511 208.615 185.614 208.953 185.809C209.292 186.005 209.572 186.286 209.768 186.624L214.42 194.689L222.332 180.976C222.576 180.552 222.928 180.201 223.351 179.956C223.775 179.711 224.255 179.583 224.744 179.583C225.233 179.583 225.713 179.711 226.136 179.956C226.559 180.201 226.911 180.552 227.155 180.976L241.306 205.503Z" fill="#524F85"/>
<path d="M241.35 205.498H192.012C191.467 205.498 190.945 205.281 190.559 204.895C190.174 204.509 189.957 203.987 189.957 203.441V175.885C189.957 175.339 190.174 174.816 190.559 174.431C190.945 174.045 191.467 173.828 192.012 173.828H241.35C241.895 173.828 242.417 174.045 242.803 174.431C243.188 174.816 243.405 175.339 243.406 175.885V203.441C243.405 203.987 243.188 204.509 242.803 204.895C242.417 205.281 241.895 205.498 241.35 205.498ZM192.012 174.65C191.685 174.651 191.372 174.781 191.14 175.012C190.909 175.244 190.779 175.557 190.779 175.885V203.441C190.779 203.768 190.909 204.082 191.14 204.313C191.372 204.545 191.685 204.675 192.012 204.675H241.35C241.677 204.675 241.99 204.545 242.222 204.313C242.453 204.082 242.583 203.768 242.583 203.441V175.885C242.583 175.557 242.453 175.244 242.222 175.012C241.99 174.781 241.677 174.651 241.35 174.65H192.012Z" fill="#3F3D56"/>
<path d="M338.119 181.246L329.325 185.715C326.186 187.31 323.157 187.037 321.997 183.711C321.721 182.92 321.619 182.078 321.698 181.243C321.777 180.409 322.036 179.601 322.456 178.876C322.876 178.15 323.447 177.524 324.131 177.041C324.816 176.557 325.596 176.227 326.42 176.073L334.778 174.512L370.575 162.627L392.259 147.24L400.208 159.913L375.152 173.443L338.119 181.246Z" fill="#FFB8B8"/>
<path d="M379.172 329.583L372.443 328.461L373.191 315.742H380.293L379.172 329.583Z" fill="#FFB8B8"/>
<path d="M444.475 317.161L437.964 319.193L432.903 307.503L439.243 304.3L444.475 317.161Z" fill="#FFB8B8"/>
<path d="M440.849 306.016L432.625 309.383L393.376 257.761L381.041 318.361L372.817 316.864C367.541 264.62 363.24 211.33 368.518 186.127L398.983 184.817L412.814 228.958L419.542 258.883L440.849 306.016Z" fill="#2F2E41"/>
<path d="M378.801 339.869C377.571 340.133 376.289 339.996 375.141 339.48L371.144 337.68C367.793 337.507 365.511 338.175 363.645 335.739C363.118 335.042 362.788 334.217 362.687 333.35C362.587 332.482 362.72 331.603 363.074 330.805C363.424 330.004 363.981 329.31 364.688 328.795C365.395 328.281 366.226 327.964 367.095 327.877L372.585 324.415L372.873 327.01C375.382 328.433 378.361 327.818 381.518 326.433L383.241 332.469C383.463 333.247 383.523 334.062 383.418 334.865C383.312 335.667 383.042 336.439 382.626 337.133C382.21 337.827 381.656 338.428 380.998 338.898C380.34 339.369 379.592 339.699 378.801 339.869Z" fill="#2F2E41"/>
<path d="M447.14 327.489C446.062 328.138 444.805 328.426 443.552 328.31L439.187 327.907C435.962 328.833 434.02 330.206 431.464 328.508C430.74 328.02 430.16 327.348 429.784 326.56C429.407 325.772 429.248 324.897 429.323 324.027C429.395 323.155 429.697 322.318 430.198 321.602C430.699 320.886 431.382 320.316 432.177 319.951L436.246 314.893L437.36 317.254C440.195 317.784 442.813 316.234 445.35 313.899L448.938 319.047C449.4 319.711 449.722 320.463 449.882 321.256C450.042 322.049 450.038 322.867 449.87 323.659C449.701 324.45 449.372 325.199 448.902 325.857C448.433 326.516 447.833 327.072 447.14 327.489Z" fill="#2F2E41"/>
<path d="M387.769 131.699C395.201 131.699 401.226 125.67 401.226 118.233C401.226 110.795 395.201 104.766 387.769 104.766C380.337 104.766 374.312 110.795 374.312 118.233C374.312 125.67 380.337 131.699 387.769 131.699Z" fill="#FFB8B8"/>
<path d="M404.216 146.662L386.647 142.921L384.405 128.333L396.74 125.714L404.216 146.662Z" fill="#FFB8B8"/>
<path d="M399.357 186.688H367.957L375.035 168.906C374.521 162.787 377.112 158.287 380.821 154.369L385.526 142.547C393.129 137.54 398.86 137.914 404.964 144.418C412.201 154.671 407.191 170.084 399.357 186.688Z" fill="#524F85"/>
<path d="M385.152 224.469L384.259 234.299C383.941 237.807 382.1 240.23 378.668 239.445C377.851 239.258 377.084 238.897 376.42 238.386C375.756 237.875 375.21 237.227 374.819 236.485C374.428 235.743 374.203 234.926 374.157 234.089C374.111 233.252 374.247 232.415 374.554 231.635L377.676 223.721L386.648 187.062L385.152 160.503H400.105L398.236 188.932L385.152 224.469Z" fill="#FFB8B8"/>
<path d="M401.226 161.251H384.031L385.236 150.026C385.316 148.084 386.117 146.243 387.484 144.862C388.851 143.482 390.683 142.663 392.623 142.566C393.65 142.515 394.678 142.668 395.646 143.016C396.614 143.365 397.504 143.902 398.263 144.597C399.022 145.292 399.636 146.131 400.069 147.065C400.502 147.999 400.746 149.009 400.787 150.038L401.226 161.251Z" fill="#524F85"/>
<path d="M404.424 104.386C407.217 104.386 409.482 102.12 409.482 99.3242C409.482 96.5287 407.217 94.2625 404.424 94.2625C401.63 94.2625 399.366 96.5287 399.366 99.3242C399.366 102.12 401.63 104.386 404.424 104.386Z" fill="#2F2E41"/>
<path d="M399.212 98.085C399.295 96.8008 399.864 95.5966 400.804 94.7176C401.743 93.8386 402.982 93.351 404.268 93.3541C404.163 93.3409 404.06 93.3248 403.953 93.3179C402.615 93.2326 401.298 93.6826 400.291 94.5689C399.284 95.4553 398.67 96.7054 398.584 98.0446C398.498 99.3838 398.947 100.702 399.832 101.71C400.717 102.719 401.966 103.334 403.304 103.42C403.411 103.427 403.515 103.425 403.621 103.425C402.345 103.263 401.179 102.621 400.36 101.629C399.54 100.637 399.13 99.3693 399.212 98.085Z" fill="#2F2E41"/>
<path d="M399.183 100.247C394.672 96.5017 381.734 101.261 380.899 103.779C374.799 104.611 370.18 108.172 370.18 114.505V114.505C373.807 115.992 377.931 115.809 382.39 114.505C389.498 120.302 389.985 127.589 385.663 135.958L390.981 136.065L397.572 126.424L397.888 136.203L410.078 135.958V121.944C410.117 117.284 409.045 112.682 406.951 108.52C405.052 104.827 402.104 102.671 399.183 100.247Z" fill="#2F2E41"/>
<path d="M387.832 125.007C389.168 125.007 390.251 123.489 390.251 121.618C390.251 119.746 389.168 118.229 387.832 118.229C386.496 118.229 385.413 119.746 385.413 121.618C385.413 123.489 386.496 125.007 387.832 125.007Z" fill="#FFB8B8"/>
<path d="M83.4909 125.918C83.4909 125.918 84.9469 100.698 92.5058 106.429C100.065 112.159 89.2047 128.257 89.2047 128.257L83.4909 125.918Z" fill="#FFB9B9"/>
<path d="M55.3685 200.726C55.3685 200.726 72.1593 219.59 62.7651 220.886C53.3709 222.183 49.6755 203.116 49.6755 203.116L55.3685 200.726Z" fill="#FFB9B9"/>
<path d="M33.4578 111.436C35.5652 111.991 37.4618 113.157 38.9094 114.787C40.357 116.417 41.291 118.439 41.5942 120.598L46.9352 158.641L54.4226 188.986C54.4226 188.986 58.1663 192.358 56.6688 194.231C55.1713 196.104 58.5406 203.972 58.5406 203.972L49.1814 206.969C49.1814 206.969 48.0583 199.101 46.1864 198.727C44.5414 198.398 26.1263 149.169 21.6875 137.243C21.0755 135.599 20.7292 134.664 20.7292 134.664C20.7292 134.664 21.4779 109.563 33.4578 111.436Z" fill="#575A89"/>
<path d="M35.1673 309.823L40.9161 320.018C45.3679 329.529 41.4118 331.257 30.4965 326.542L28.0084 314.504L35.1673 309.823Z" fill="#FFB9B9"/>
<path d="M38.0679 323.372C38.0679 323.372 40.7969 318.926 41.7839 319.67C42.771 320.415 46.8422 323.639 46.8422 323.639L52.1451 328.722C52.1451 328.722 70.0614 330.618 58.677 336.9C47.2926 343.182 41.0012 337.973 41.0012 337.973C41.0012 337.973 25.0562 338.803 25.3134 334.351C25.5706 329.899 30.713 322.856 30.713 322.856C30.713 322.856 37.1941 327.204 38.0679 323.372Z" fill="#2F2E41"/>
<path d="M9.65739 194.587L15.0468 259.845C15.0468 259.845 15.2265 298.857 20.9752 306.407C26.7239 313.958 26.9036 317.733 26.9036 317.733L38.7603 311.621C38.7603 311.621 32.6523 301.436 33.9098 299.876C34.685 298.888 35.2366 297.742 35.5267 296.52L32.293 256.25L38.401 186.137L9.65739 194.587Z" fill="#2F2E41"/>
<path d="M24.3883 309.823L19.3582 323.126L7.9505 318.354L13.9688 308.385L24.3883 309.823Z" fill="#FFB9B9"/>
<path d="M15.9967 318.646C15.9967 318.646 20.2752 315.97 20.81 317.04C21.3448 318.11 23.484 322.66 23.484 322.66L25.8906 329.349C25.8906 329.349 40.5978 338.715 28.0299 339.25C15.4619 339.786 12.2531 332.561 12.2531 332.561C12.2531 332.561 -1.91932 326.406 0.219917 322.659C2.35916 318.913 9.84644 315.028 9.84644 315.028C9.84644 315.028 13.5901 321.589 15.9967 318.646Z" fill="#2F2E41"/>
<path d="M55.2879 194.766L58.1623 254.811C58.1623 254.811 31.9337 309.104 29.0593 310.542C28.2028 310.985 27.4436 311.594 26.8265 312.336C26.2094 313.077 25.7469 313.934 25.4664 314.857L9.65738 310.902L16.8433 299.396L32.6523 260.924C32.6523 260.924 35.1674 259.845 35.886 256.25C36.6046 252.654 38.0417 252.654 34.4488 251.935C30.8558 251.216 30.8558 247.62 30.8558 247.62L18.9991 192.969L55.2879 194.766Z" fill="#2F2E41"/>
<path d="M56.5395 88.4853C57.8109 80.6449 52.4902 73.2575 44.6554 71.9852C36.8205 70.7129 29.4385 76.0374 28.167 83.8778C26.8956 91.7183 32.2163 99.1056 40.0512 100.378C47.886 101.65 55.2681 96.3258 56.5395 88.4853Z" fill="#FFB9B9"/>
<path d="M29.5983 87.0804C29.5983 87.0804 28.5204 105.418 27.0832 107.215C25.6461 109.013 42.1736 108.654 42.1736 108.654C42.1736 108.654 41.0958 93.1928 42.1736 91.7546C43.2515 90.3164 29.5983 87.0804 29.5983 87.0804Z" fill="#FFB9B9"/>
<path d="M56.3645 198.722C56.3645 198.722 15.764 195.127 8.22072 198.722C8.22072 198.722 10.9976 188.413 10.2801 187.336C9.75826 186.548 11.198 157.183 10.746 140.244C10.4898 130.686 8.28595 121.351 14.6924 114.255C16.8729 111.844 19.305 109.821 21.8723 108.832C21.8723 108.832 21.1547 102.002 24.747 101.643C24.747 101.643 38.4032 100.202 43.4305 104.52C45.0379 105.89 46.049 110.068 46.1561 113.667C43.6681 125.911 44.5487 139.498 46.8317 153.593C46.9715 154.488 47.1253 155.388 47.279 156.288C49.7018 170.266 53.3639 184.678 56.3645 198.722Z" fill="#575A89"/>
<path d="M34.8452 90.4194C36.0606 90.3469 37.2474 90.7579 38.4544 90.9183C42.7727 91.492 47.265 88.3562 48.2185 84.1026C48.2949 83.5362 48.4636 82.9861 48.7179 82.4743C49.3825 81.3884 50.8961 81.1814 52.1438 81.4311C53.3916 81.6808 54.5743 82.2652 55.845 82.3319C57.807 82.4349 59.6906 81.2262 60.7362 79.5617C61.7243 77.8445 62.1445 75.8586 61.9367 73.888L60.9962 74.8758C60.614 74.0667 60.4664 73.1664 60.5703 72.2775C60.0719 72.1447 59.5477 72.1421 59.048 72.2701C58.5483 72.398 58.0898 72.6522 57.7164 73.0083C56.887 73.0966 57.513 71.4689 56.8968 70.9064C56.5972 70.7221 56.24 70.6552 55.894 70.7186C54.1297 70.7356 52.7024 69.3852 51.3121 68.2981C48.9031 66.4186 46.0861 65.1328 43.0887 64.5443C41.0964 64.1555 38.9778 64.093 37.0884 64.8354C35.5632 65.5206 34.1866 66.4977 33.0363 67.7118C30.0783 70.5582 27.4589 73.9026 26.2283 77.8203C25.2278 81.0292 25.1995 84.4627 26.1468 87.6877C26.6427 89.3625 28.1371 95.0984 30.3249 95.2319C33.074 95.3998 31.4235 90.6237 34.8452 90.4194Z" fill="#2F2E41"/>
<path d="M40.794 113.201L45.943 113.753C45.943 113.753 50.9974 123.566 50.6303 125.613C50.2633 127.66 49.4639 126.417 51.7388 129.692C54.0138 132.967 60.4691 141.432 61.2685 142.674C62.0679 143.917 83.8604 127.278 82.5056 122.292C82.5056 122.292 89.3883 127.233 92.337 127.891C92.337 127.891 69.878 157.367 66.7483 161.139C63.6186 164.911 61.0997 164.137 56.7986 161.9C52.4975 159.663 30.7383 137.354 30.7383 137.354L40.794 113.201Z" fill="#575A89"/>
<path opacity="0.1" d="M47.279 156.288L29.3829 138.379L33.9117 136.901L46.8317 153.593C46.9715 154.488 47.1253 155.388 47.279 156.288Z" fill="black"/>
</svg>
